<?xml version="1.0" encoding="utf-8"?>
<!-- Generator: Adobe Illustrator 23.0.6, SVG Export Plug-In . SVG Version: 6.00 Build 0)  -->
<svg version="1.1" id="Layer_1" xmlns="http://www.w3.org/2000/svg" xmlns:xlink="http://www.w3.org/1999/xlink" x="0px" y="0px"
	 viewBox="0 0 1200 1200" style="enable-background:new 0 0 1200 1200;" xml:space="preserve">
<style type="text/css">
	.st0{fill:#7EBAD4;}
	.st1{opacity:0.46;fill:#5594AA;}
	.st2{fill:#FFFFFF;}
	.st3{fill:none;}
	.st4{fill:#64A3B9;}
	.st5{fill:none;stroke:#64A3B9;stroke-width:0;stroke-linecap:round;stroke-linejoin:round;}
	.st6{opacity:0.47;}
	.st7{fill:#D8FFF7;}
	.st8{fill:none;stroke:#D8FFF7;stroke-width:0;stroke-linecap:round;stroke-linejoin:round;}
	.st9{fill:#F38A1E;}
	.st10{fill:#B9792C;}
	.st11{fill:#FCD192;}
	.st12{fill:#FCD9B1;}
	.st13{fill:#A3CEC6;}
	.st14{fill:#F0D13E;}
	.st15{fill:#8C5C22;}
	.st16{fill:none;stroke:#8C5C22;stroke-width:0;stroke-linecap:round;stroke-linejoin:round;}
	.st17{fill:#D29037;}
	.st18{fill:none;stroke:#D29037;stroke-width:0;stroke-linecap:round;stroke-linejoin:round;}
	.st19{fill:#824437;}
	.st20{fill:#332120;}
	.st21{fill:#F4983A;}
	.st22{fill:#E7D5C3;}
	.st23{fill:#F4E5D7;}
	.st24{fill:#C3A183;}
	.st25{fill:#FCF9EB;}
	.st26{fill:none;stroke:#2BA6B3;stroke-width:2;stroke-linecap:round;stroke-linejoin:round;stroke-miterlimit:10;}
	.st27{fill:#2BA6B3;}
	.st28{fill:#318A8F;}
	.st29{fill:#C6334E;}
	.st30{fill:#FC6230;}
	.st31{fill:#6F2121;}
	.st32{fill:#8CD7AD;}
	.st33{opacity:0.64;}
	.st34{fill:#FF867D;}
	.st35{fill:#F4473B;}
	.st36{fill:#EBE9D1;}
	.st37{fill:#E1DEB6;}
	.st38{fill:none;stroke:#E1DEB6;stroke-width:0;stroke-linecap:round;stroke-linejoin:round;}
	.st39{fill:#CD4C64;}
	.st40{fill:#E25070;}
	.st41{fill:#EAD6BE;}
	.st42{fill:#651023;}
	.st43{fill:#A3425B;}
	.st44{fill:#9B4949;}
	.st45{fill:#FCBC5B;}
	.st46{fill:#CFA46B;}
	.st47{fill:#C89756;}
	.st48{fill:#C0883E;}
	.st49{fill:#F7AC41;}
	.st50{fill:#D09242;}
	.st51{fill:none;stroke:#D09242;stroke-width:0;stroke-linecap:round;stroke-linejoin:round;}
	.st52{fill:#F89A42;}
	.st53{fill:#FFFDE9;}
	.st54{opacity:0.38;}
	.st55{fill:#FAF2CA;}
	.st56{fill:none;stroke:#FAF2CA;stroke-width:0;stroke-linecap:round;stroke-linejoin:round;}
	.st57{fill:#D7BB49;}
	.st58{fill:none;stroke:#D7BB49;stroke-width:0;stroke-linecap:round;stroke-linejoin:round;}
	.st59{fill:#F66A69;}
	.st60{fill:#FAD3D3;}
	.st61{fill:none;stroke:#FAD3D3;stroke-width:0;stroke-linecap:round;stroke-linejoin:round;}
	.st62{opacity:0.53;clip-path:url(#SVGID_12_);}
	.st63{clip-path:url(#SVGID_14_);}
	.st64{fill:#962744;}
	.st65{fill:#E8F5EC;}
	.st66{fill:#EDB055;}
	.st67{fill:#650C04;}
	.st68{fill:#FAD7A7;}
	.st69{fill:none;stroke:#FAD7A7;stroke-width:0;stroke-linecap:round;stroke-linejoin:round;}
	.st70{opacity:0.62;}
	.st71{fill:#782A23;}
	.st72{fill:#43B5C0;}
	.st73{fill:#222E48;}
	.st74{fill:#E56759;}
	.st75{fill:#FCC54E;}
	.st76{fill:#F7E6D7;}
	.st77{fill:#520001;}
	.st78{fill:#FECB9F;}
	.st79{fill:#5899FE;}
	.st80{fill:#2C7CF2;}
	.st81{fill:#FCE270;}
	.st82{fill:#EFD256;}
	.st83{fill:#FD6A88;}
	.st84{fill:#ED567A;}
	.st85{fill:#00D2D1;}
</style>
<g>
	<g>
		<g>
			<path class="st81" d="M797.71,598.71c-3.85,0-7.4-2.05-9.32-5.38l-93.62-162.14c-1.92-3.33-1.92-7.43,0-10.76l93.62-162.14
				c1.92-3.33,5.47-5.38,9.32-5.38h187.23c3.85,0,7.4,2.05,9.32,5.38l93.62,162.14c1.92,3.33,1.92,7.43,0,10.76l-93.62,162.14
				c-1.92,3.33-5.47,5.38-9.32,5.38H797.71z"/>
		</g>
		<g>
			<path class="st77" d="M984.94,263.66l93.61,162.14l-93.61,162.14H797.71L704.1,425.8l93.61-162.14H984.94 M984.94,242.13H797.71
				c-7.69,0-14.8,4.1-18.64,10.76l-93.61,162.14c-3.85,6.66-3.85,14.87,0,21.53l93.61,162.14c3.84,6.66,10.95,10.76,18.64,10.76
				h187.23c7.69,0,14.8-4.1,18.64-10.76l93.61-162.14c3.85-6.66,3.85-14.87,0-21.53l-93.61-162.14
				C999.74,246.23,992.63,242.13,984.94,242.13L984.94,242.13z"/>
		</g>
	</g>
	<g>
		<path class="st77" d="M765.91,436.57c-1.77,0-3.57-0.44-5.22-1.36c-5.2-2.89-7.06-9.44-4.17-14.64l64.74-116.44
			c2.89-5.2,9.44-7.06,14.64-4.18c5.2,2.89,7.06,9.44,4.17,14.64l-64.74,116.44C773.36,434.57,769.69,436.57,765.91,436.57z"/>
	</g>
	<g>
		<path class="st77" d="M846.12,369.42c-1.62,0-3.26-0.37-4.81-1.14c-5.31-2.66-7.47-9.12-4.81-14.44l13.53-27.06
			c2.66-5.32,9.12-7.47,14.44-4.82c5.31,2.66,7.47,9.12,4.81,14.44l-13.53,27.06C853.87,367.24,850.07,369.42,846.12,369.42z"/>
	</g>
	<g>
		<g>
			<path class="st82" d="M1078.56,425.81l-93.61,162.14h-60.67l88.88-153.93c2.93-5.08,2.93-11.33,0-16.41l-88.88-153.93h60.67
				L1078.56,425.81z"/>
		</g>
	</g>
	<g>
		<g>
			<path class="st81" d="M506.39,772.91c-3.85,0-7.4-2.05-9.32-5.38l-93.62-162.15c-1.92-3.33-1.92-7.43,0-10.76l93.62-162.14
				c1.92-3.33,5.47-5.38,9.32-5.38h187.23c3.85,0,7.4,2.05,9.32,5.38l93.62,162.14c1.92,3.33,1.92,7.43,0,10.76l-93.62,162.15
				c-1.92,3.33-5.47,5.38-9.32,5.38H506.39z"/>
		</g>
		<g>
			<path class="st77" d="M693.62,437.86L787.23,600l-93.62,162.14H506.39L412.77,600l93.61-162.14H693.62 M693.62,416.33H506.39
				c-7.69,0-14.8,4.1-18.64,10.76l-93.61,162.14c-3.85,6.66-3.85,14.87,0,21.53l93.61,162.14c3.84,6.66,10.95,10.76,18.64,10.76
				h187.23c7.69,0,14.8-4.1,18.64-10.76l93.62-162.14c3.85-6.66,3.85-14.87,0-21.53L712.26,427.1
				C708.41,420.43,701.31,416.33,693.62,416.33L693.62,416.33z"/>
		</g>
	</g>
	<g>
		<path class="st77" d="M474.59,610.77c-1.77,0-3.57-0.44-5.22-1.36c-5.2-2.89-7.06-9.44-4.17-14.64l64.74-116.43
			c2.89-5.2,9.44-7.06,14.64-4.18c5.2,2.89,7.06,9.44,4.17,14.64L484,605.23C482.04,608.77,478.37,610.77,474.59,610.77z"/>
	</g>
	<g>
		<path class="st77" d="M554.8,543.61c-1.62,0-3.26-0.37-4.81-1.14c-5.32-2.66-7.47-9.12-4.81-14.44l13.53-27.06
			c2.66-5.32,9.12-7.48,14.44-4.81c5.32,2.66,7.47,9.12,4.81,14.44l-13.53,27.06C562.55,541.43,558.75,543.61,554.8,543.61z"/>
	</g>
	<g>
		<g>
			<path class="st82" d="M787.23,600.01l-93.61,162.14h-60.67l88.87-153.93c2.93-5.08,2.93-11.33,0-16.41l-88.87-153.93h60.67
				L787.23,600.01z"/>
		</g>
	</g>
	<g>
		<g>
			<path class="st81" d="M506.38,436.58c-3.85,0-7.4-2.05-9.32-5.38l-93.62-162.14c-1.92-3.33-1.92-7.43,0-10.76l93.62-162.14
				c1.92-3.33,5.47-5.38,9.32-5.38h187.23c3.85,0,7.4,2.05,9.32,5.38l93.62,162.14c1.92,3.33,1.92,7.43,0,10.76L702.94,431.2
				c-1.92,3.33-5.47,5.38-9.32,5.38H506.38z"/>
		</g>
		<g>
			<path class="st77" d="M693.61,101.53l93.61,162.14l-93.61,162.14H506.39l-93.61-162.14l93.61-162.14H693.61 M693.61,80H506.39
				c-7.69,0-14.8,4.1-18.64,10.76l-93.61,162.14c-3.85,6.66-3.85,14.87,0,21.53l93.61,162.14c3.84,6.66,10.95,10.76,18.64,10.76
				h187.23c7.69,0,14.8-4.1,18.64-10.76l93.61-162.14c3.85-6.66,3.85-14.87,0-21.53L712.26,90.76C708.41,84.1,701.31,80,693.61,80
				L693.61,80z"/>
		</g>
	</g>
	<g>
		<path class="st77" d="M474.59,274.44c-1.77,0-3.57-0.44-5.22-1.36c-5.2-2.89-7.06-9.44-4.17-14.64L529.94,142
			c2.89-5.2,9.44-7.06,14.64-4.18c5.2,2.89,7.06,9.44,4.17,14.64L484,268.9C482.04,272.44,478.37,274.44,474.59,274.44z"/>
	</g>
	<g>
		<path class="st77" d="M554.79,207.28c-1.62,0-3.26-0.37-4.81-1.14c-5.32-2.66-7.47-9.12-4.81-14.44l13.53-27.06
			c2.66-5.32,9.12-7.47,14.44-4.81c5.32,2.66,7.47,9.12,4.81,14.44l-13.53,27.06C562.54,205.1,558.74,207.28,554.79,207.28z"/>
	</g>
	<g>
		<g>
			<path class="st82" d="M787.23,263.67l-93.61,162.14h-60.67l88.87-153.93c2.93-5.08,2.93-11.33,0-16.41l-88.87-153.93h60.67
				L787.23,263.67z"/>
		</g>
	</g>
	<g>
		<g>
			<path class="st81" d="M215.06,610.77c-3.85,0-7.4-2.05-9.32-5.38l-93.61-162.14c-1.92-3.33-1.92-7.43,0-10.76l93.61-162.14
				c1.92-3.33,5.47-5.38,9.32-5.38h187.23c3.85,0,7.4,2.05,9.32,5.38l93.62,162.14c1.92,3.33,1.92,7.43,0,10.76l-93.62,162.14
				c-1.92,3.33-5.47,5.38-9.32,5.38H215.06z"/>
		</g>
		<g>
			<path class="st77" d="M402.29,275.71l93.61,162.14L402.29,600H215.06l-93.62-162.14l93.62-162.14H402.29 M402.29,254.19H215.06
				c-7.69,0-14.8,4.1-18.64,10.76L102.81,427.1c-3.85,6.66-3.85,14.87,0,21.53l93.62,162.14c3.84,6.66,10.95,10.76,18.64,10.76
				h187.23c7.69,0,14.8-4.1,18.64-10.76l93.61-162.14c3.85-6.66,3.85-14.87,0-21.53l-93.61-162.14
				C417.09,258.29,409.98,254.19,402.29,254.19L402.29,254.19z"/>
		</g>
	</g>
	<g>
		<path class="st77" d="M183.27,448.62c-1.77,0-3.57-0.44-5.22-1.36c-5.2-2.89-7.06-9.44-4.17-14.64l64.74-116.43
			c2.89-5.2,9.44-7.06,14.64-4.18c5.2,2.89,7.06,9.44,4.17,14.64l-64.74,116.43C190.71,446.63,187.05,448.62,183.27,448.62z"/>
	</g>
	<g>
		<path class="st77" d="M263.48,381.47c-1.62,0-3.26-0.37-4.81-1.14c-5.31-2.66-7.47-9.12-4.81-14.44l13.53-27.06
			c2.66-5.32,9.12-7.47,14.44-4.82c5.31,2.66,7.47,9.12,4.81,14.44l-13.53,27.06C271.22,379.29,267.42,381.47,263.48,381.47z"/>
	</g>
	<g>
		<g>
			<path class="st82" d="M495.91,437.86L402.3,600h-60.67l88.87-153.93c2.93-5.08,2.93-11.33,0-16.41l-88.87-153.93h60.67
				L495.91,437.86z"/>
		</g>
	</g>
	<g>
		<g>
			<path class="st81" d="M215.06,947.1c-3.85,0-7.4-2.05-9.32-5.38l-93.62-162.14c-1.92-3.33-1.92-7.43,0-10.76l93.62-162.14
				c1.92-3.33,5.47-5.38,9.32-5.38h187.23c3.85,0,7.4,2.05,9.32,5.38l93.61,162.14c1.92,3.33,1.92,7.43,0,10.76l-93.61,162.14
				c-1.92,3.33-5.47,5.38-9.32,5.38H215.06z"/>
		</g>
		<g>
			<path class="st77" d="M402.29,612.05l93.62,162.14l-93.62,162.14H215.06l-93.61-162.14l93.61-162.14H402.29 M402.29,590.52
				H215.06c-7.69,0-14.8,4.1-18.64,10.76l-93.61,162.14c-3.85,6.66-3.85,14.87,0,21.53l93.61,162.14
				c3.84,6.66,10.95,10.76,18.64,10.76h187.23c7.69,0,14.8-4.1,18.64-10.76l93.62-162.14c3.85-6.66,3.85-14.87,0-21.53
				l-93.62-162.14C417.09,594.62,409.98,590.52,402.29,590.52L402.29,590.52z"/>
		</g>
	</g>
	<g>
		<path class="st77" d="M183.26,784.96c-1.77,0-3.57-0.44-5.22-1.36c-5.2-2.89-7.06-9.44-4.17-14.64l64.75-116.44
			c2.89-5.19,9.44-7.06,14.64-4.18c5.2,2.89,7.06,9.44,4.17,14.64l-64.75,116.44C190.71,782.96,187.04,784.96,183.26,784.96z"/>
	</g>
	<g>
		<path class="st77" d="M263.47,717.8c-1.62,0-3.26-0.37-4.81-1.14c-5.32-2.66-7.47-9.12-4.81-14.44l13.53-27.06
			c2.66-5.32,9.12-7.48,14.44-4.81c5.32,2.66,7.47,9.12,4.81,14.44l-13.53,27.06C271.22,715.62,267.42,717.8,263.47,717.8z"/>
	</g>
	<g>
		<g>
			<path class="st82" d="M495.91,774.19L402.3,936.33h-60.67L430.5,782.4c2.93-5.08,2.93-11.33,0-16.41l-88.87-153.93h60.67
				L495.91,774.19z"/>
		</g>
	</g>
	<g>
		<g>
			<path class="st81" d="M506.38,1109.24c-3.85,0-7.4-2.05-9.32-5.38l-93.62-162.14c-1.92-3.33-1.92-7.43,0-10.76l93.62-162.14
				c1.92-3.33,5.47-5.38,9.32-5.38h187.23c3.85,0,7.4,2.05,9.32,5.38l93.62,162.14c1.92,3.33,1.92,7.43,0,10.76l-93.62,162.14
				c-1.92,3.33-5.47,5.38-9.32,5.38H506.38z"/>
		</g>
		<g>
			<path class="st77" d="M693.61,774.18l93.61,162.14l-93.61,162.14H506.39l-93.61-162.14l93.61-162.14H693.61 M693.61,752.66
				H506.39c-7.69,0-14.8,4.1-18.64,10.76l-93.61,162.14c-3.85,6.66-3.85,14.87,0,21.53l93.61,162.14
				c3.84,6.66,10.95,10.76,18.64,10.76h187.23c7.69,0,14.8-4.1,18.64-10.76l93.61-162.14c3.85-6.66,3.85-14.87,0-21.53
				l-93.61-162.14C708.41,756.76,701.31,752.66,693.61,752.66L693.61,752.66z"/>
		</g>
	</g>
	<g>
		<path class="st77" d="M474.59,947.09c-1.77,0-3.57-0.44-5.22-1.36c-5.2-2.89-7.06-9.44-4.17-14.64l64.74-116.44
			c2.89-5.2,9.44-7.07,14.64-4.18c5.2,2.89,7.06,9.44,4.17,14.64L484,941.56C482.04,945.1,478.37,947.09,474.59,947.09z"/>
	</g>
	<g>
		<path class="st77" d="M554.79,879.94c-1.62,0-3.26-0.37-4.81-1.14c-5.32-2.66-7.47-9.12-4.81-14.44l13.53-27.06
			c2.66-5.32,9.12-7.47,14.44-4.81c5.32,2.66,7.47,9.12,4.81,14.44l-13.53,27.06C562.54,877.76,558.74,879.94,554.79,879.94z"/>
	</g>
	<g>
		<g>
			<path class="st82" d="M787.23,936.33l-93.61,162.14h-60.67l88.87-153.93c2.93-5.08,2.93-11.33,0-16.41L632.95,774.2h60.67
				L787.23,936.33z"/>
		</g>
	</g>
	<g>
		<g>
			<path class="st81" d="M797.71,935.06c-3.85,0-7.4-2.05-9.32-5.38l-93.62-162.14c-1.92-3.33-1.92-7.43,0-10.76l93.62-162.15
				c1.92-3.33,5.47-5.38,9.32-5.38h187.23c3.85,0,7.4,2.05,9.32,5.38l93.62,162.15c1.92,3.33,1.92,7.43,0,10.76l-93.62,162.14
				c-1.92,3.33-5.47,5.38-9.32,5.38H797.71z"/>
		</g>
		<g>
			<path class="st77" d="M984.94,600l93.61,162.14l-93.61,162.14H797.71l-93.61-162.14L797.71,600H984.94 M984.94,578.48H797.71
				c-7.69,0-14.8,4.1-18.64,10.76l-93.61,162.14c-3.85,6.66-3.85,14.87,0,21.53l93.61,162.14c3.84,6.66,10.95,10.76,18.64,10.76
				h187.23c7.69,0,14.8-4.1,18.64-10.76l93.61-162.14c3.85-6.66,3.85-14.87,0-21.53l-93.61-162.14
				C999.73,582.58,992.63,578.48,984.94,578.48L984.94,578.48z"/>
		</g>
	</g>
	<g>
		<path class="st77" d="M765.91,772.91c-1.77,0-3.57-0.44-5.22-1.36c-5.2-2.89-7.06-9.44-4.17-14.64l64.75-116.44
			c2.89-5.19,9.44-7.07,14.64-4.18c5.2,2.89,7.06,9.44,4.17,14.64l-64.75,116.44C773.36,770.92,769.69,772.91,765.91,772.91z"/>
	</g>
	<g>
		<path class="st77" d="M846.12,705.76c-1.62,0-3.26-0.37-4.81-1.14c-5.32-2.66-7.47-9.12-4.81-14.44l13.53-27.06
			c2.66-5.32,9.12-7.48,14.44-4.81c5.32,2.66,7.47,9.12,4.81,14.44l-13.53,27.06C853.87,703.58,850.06,705.76,846.12,705.76z"/>
	</g>
	<g>
		<g>
			<path class="st82" d="M1078.55,762.15l-93.61,162.14h-60.67l88.88-153.93c2.93-5.08,2.93-11.33,0-16.41l-88.88-153.93h60.67
				L1078.55,762.15z"/>
		</g>
	</g>
</g>
</svg>
